<?xml version="1.0" encoding="utf-8"?>
<!-- Generator: Adobe Illustrator 18.0.0, SVG Export Plug-In . SVG Version: 6.00 Build 0)  -->
<!DOCTYPE svg PUBLIC "-//W3C//DTD SVG 1.1//EN" "http://www.w3.org/Graphics/SVG/1.1/DTD/svg11.dtd">
<svg version="1.1" id="Layer_1" xmlns="http://www.w3.org/2000/svg" xmlns:xlink="http://www.w3.org/1999/xlink" x="0px" y="0px"
	 viewBox="0 0 146 146" enable-background="new 0 0 146 146" xml:space="preserve">
<path fill="#FFFFFF" d="M135.2,0H10.8C4.9,0,0,4.7,0,10.5v124.9c0,5.8,4.8,10.5,10.8,10.5h124.4c6,0,10.8-4.7,10.8-10.5V10.5
	C146,4.7,141.1,0,135.2,0z M43.3,124.4H21.6V54.7h21.7V124.4z M32.5,45.2c-7,0-12.6-5.6-12.6-12.6c0-6.9,5.6-12.6,12.6-12.6
	c6.9,0,12.6,5.6,12.6,12.6C45,39.6,39.4,45.2,32.5,45.2z M124.4,124.4h-21.7V90.5c0-8.1-0.2-18.5-11.3-18.5c-11.3,0-13,8.8-13,17.9
	v34.5H56.9V54.7h20.8v9.5H78c2.9-5.5,10-11.3,20.5-11.3c21.9,0,26,14.4,26,33.2V124.4z"/>
</svg>
